<svg id="Layer_1"  width="16" height="16" enable-background="new 0 0 480.003 480.003" viewBox="0 0 480.003 480.003" xmlns="http://www.w3.org/2000/svg">
	<path d="m279.083 88.56c106.59.14 192.92 77.56 192.92 172.85 0 95.46-86.64 172.84-193.5 172.84-106.87 0-193.51-77.38-193.51-172.84 0-97.235 88.603-172.989 194.09-172.85z" fill="#ffaa64"></path>
	<path d="m321.735 136.813c-100.745 6.9-184.225 88.807-180.758 179.845.913 23.969-32.043 31.371-41.938 9.52-9.058-20.003-14.046-41.866-14.046-64.769 0-112.131 117.925-194.724 239.998-167.831 24.722 5.448 22.001 41.505-3.256 43.235z" fill="#ffbd7b"></path>
	<path d="m273.463 195.09c87.41 152.16-96.56 335.85-248.61 248.63-22-12.62-22.56-44.21-1.07-57.68 77.67-48.67 143.33-114.33 192-192.01 13.47-21.49 45.05-20.93 57.68 1.06z" fill="#ffbd7b"></path>
	<path d="m277.863 76.7c1.93 7.64-2.08 15.48-9.4 18.4-35.77 14.26-65.48-.2-69-1.99-26.74-13.67-37.49-38.87-41.72-54.44-2.11-7.75 2.01-15.82 9.52-18.65 15.11-5.69 41.83-11.74 68.57 1.92 3.51 1.8 32.63 17.41 42.03 54.76z" fill="#befa91"></path>
	<path d="m236.406 85.729c8.353 3.309 5.931 15.764-3.048 15.47-11.372-.373-23.402-2.753-33.894-8.089-26.74-13.67-37.49-38.87-41.72-54.44-2.11-7.75 2.01-15.82 9.52-18.65 2.997-1.127 6.451-2.27 10.274-3.271 5.22-1.368 10.186 2.68 10.05 8.075-.458 18.199 17.408 48.464 48.818 60.905z" fill="#daffbf"></path>
	<path d="m241.315 431.061c-7.355-1.278-14.557-2.928-21.582-4.932 67.04-52.11 102.32-146.45 53.73-231.04-12.63-21.99-44.21-22.55-57.68-1.06-31.7 50.6-70.62 96.1-115.36 135.12-2.132-4.454-4.055-9.007-5.764-13.647-2.238-6.074-.603-12.883 4.132-17.297 37.116-34.6 69.772-74.025 96.652-116.917 23.057-36.773 77.133-35.928 98.83 1.85 47.599 82.846 25.919 179.618-38.802 243.487-3.731 3.684-8.992 5.334-14.156 4.436z" fill="#fa9a4b"></path>
	<path d="m273.546 195.234c3.146 5.495-.06 12.441-6.257 13.742-8.442 1.772-16.317 6.776-21.506 15.054-48.67 77.68-114.33 143.34-192 192.01-8.275 5.185-13.282 13.061-15.054 21.504-1.271 6.056-8.076 9.503-13.876 6.176-22-12.62-22.56-44.21-1.07-57.68 77.67-48.67 143.33-114.33 192-192.01 13.372-21.334 44.968-21.145 57.763 1.204z" fill="#ffd3a6"></path>
	<g>
		<path d="m289.589 80.842c4.702-12.3 13.502-22.75 25.791-29.762 3.837-2.189 5.174-7.075 2.984-10.913-2.189-3.837-7.075-5.173-10.913-2.984-10.786 6.154-19.557 14.437-26.078 24.616-12.455-30.544-36.641-44.289-41.902-46.977-29.95-15.306-59.861-8.002-75.026-2.286-11.428 4.308-17.63 16.443-14.427 28.229 2.449 9.01 7.337 22.373 16.72 34.869 2.652 3.533 7.667 4.248 11.201 1.594 3.533-2.653 4.247-7.668 1.594-11.201-7.861-10.469-11.993-21.798-14.075-29.458-1.028-3.782.963-7.677 4.631-9.06 15.503-5.844 38.861-10.315 62.102 1.562 2.988 1.527 29.435 15.89 37.917 49.583.952 3.781-.986 7.572-4.608 9.016-20.034 7.985-37.998 6.049-49.54 3.02-1.477-.388-3.069-.327-4.441.107-111.163 35.132-163.462 147.284-118.317 241.801 2.241 4.702 8.445 6.106 12.48 2.586 45.505-39.688 84.831-85.75 116.883-136.909 10.279-16.408 34.352-15.925 43.962.804 69.118 120.309-39.833 259.357-158.962 259.352-25.339-.001-52.023-6.332-78.729-21.651-16.752-9.609-17.196-33.694-.806-43.964 13.184-8.261 26.217-17.136 38.735-26.379 3.554-2.624 4.308-7.633 1.684-11.188-2.624-3.554-7.633-4.308-11.188-1.684-12.193 9.003-24.886 17.647-37.727 25.692-26.619 16.679-25.903 55.774 1.34 71.401 159.27 91.36 350.955-100.406 259.526-259.55-15.645-27.232-54.724-27.937-71.395-1.328-29.278 46.729-64.786 89.093-105.645 126.064-33.308-84.451 15.926-177.937 110.864-209.106 18.428 4.35 37.495 3.239 55.516-3.563.093 9.396 1.769 16.738 2.735 20.193 1.184 4.234 5.582 6.745 9.859 5.55 4.255-1.19 6.74-5.604 5.55-9.859-.973-3.479-2.86-11.926-1.932-22.351 98.843 3.491 178.048 76.023 178.048 164.698 0 90.895-83.217 164.843-185.505 164.843-4.418 0-8 3.582-8 8s3.582 8 8 8c108.218 0 201.505-78.202 201.505-180.843.003-100.058-88.2-175.619-190.411-180.564z"></path>
		<path d="m179.483 357.971c7.062 0 10.712-8.602 5.657-13.657l-18.101-18.101c-3.124-3.125-8.189-3.124-11.313 0-3.125 3.124-3.125 8.189 0 11.313l18.101 18.101c1.561 1.564 3.608 2.344 5.656 2.344z"></path>
		<path d="m213.705 303.119c4.358.689 8.46-2.281 9.152-6.651.69-4.364-2.287-8.461-6.651-9.152l-18.953-3c-4.358-.691-8.461 2.287-9.152 6.651-.69 4.364 2.287 8.461 6.651 9.152z"></path>
		<path d="m124.718 393.446c4.953 0 8.676-4.421 7.912-9.251l-3-18.953c-.691-4.364-4.79-7.343-9.152-6.651-4.364.691-7.342 4.789-6.651 9.152l3 18.953c.623 3.94 4.024 6.75 7.891 6.75z"></path>
		<path d="m334.063 164.98c2.307 3.5 7.229 4.762 11.1 2.21 3.63-2.448 4.681-7.302 2.21-11.09-2.702-4.11-8.691-4.843-12.31-1.22-2.591 2.59-3.203 6.719-1 10.1z"></path>
		<path d="m373.863 186.1c2.557 3.752 7.446 4.619 11.1 2.21 3.796-2.563 4.582-7.572 2.21-11.09-2.61-3.959-8.461-4.962-12.31-1.22-2.566 2.566-3.201 6.716-1 10.1z"></path>
		<path d="m333.512 211.62c3.743 2.464 8.643 1.434 11.1-2.21 3.945-6.203-1.381-13.619-8.22-12.29-7.109 1.532-8.68 10.585-2.88 14.5z"></path>
	</g>
</svg>