<svg id="Layer_1"  width="16" height="16" enable-background="new 0 0 480.003 480.003" viewBox="0 0 480.003 480.003" xmlns="http://www.w3.org/2000/svg">
	<g>
		<path d="m289.589 80.842c4.702-12.3 13.502-22.75 25.791-29.762 3.837-2.189 5.174-7.075 2.984-10.913-2.189-3.837-7.075-5.173-10.913-2.984-10.786 6.154-19.557 14.437-26.078 24.616-12.455-30.544-36.641-44.289-41.902-46.977-29.95-15.306-59.861-8.002-75.026-2.286-11.428 4.308-17.63 16.443-14.427 28.229 2.449 9.01 7.337 22.373 16.72 34.869 2.652 3.533 7.667 4.248 11.201 1.594 3.533-2.653 4.247-7.668 1.594-11.201-7.861-10.469-11.993-21.798-14.075-29.458-1.028-3.782.963-7.677 4.631-9.06 15.503-5.844 38.861-10.315 62.102 1.562 2.988 1.527 29.435 15.89 37.917 49.583.952 3.781-.986 7.572-4.608 9.016-20.034 7.985-37.998 6.049-49.54 3.02-1.477-.388-3.069-.327-4.441.107-111.163 35.132-163.462 147.284-118.317 241.801 2.241 4.702 8.445 6.106 12.48 2.586 45.505-39.688 84.831-85.75 116.883-136.909 10.279-16.408 34.352-15.925 43.962.804 69.118 120.309-39.833 259.357-158.962 259.352-25.339-.001-52.023-6.332-78.729-21.651-16.752-9.609-17.196-33.694-.806-43.964 13.184-8.261 26.217-17.136 38.735-26.379 3.554-2.624 4.308-7.633 1.684-11.188-2.624-3.554-7.633-4.308-11.188-1.684-12.193 9.003-24.886 17.647-37.727 25.692-26.619 16.679-25.903 55.774 1.34 71.401 159.27 91.36 350.955-100.406 259.526-259.55-15.645-27.232-54.724-27.937-71.395-1.328-29.278 46.729-64.786 89.093-105.645 126.064-33.308-84.451 15.926-177.937 110.864-209.106 18.428 4.35 37.495 3.239 55.516-3.563.093 9.396 1.769 16.738 2.735 20.193 1.184 4.234 5.582 6.745 9.859 5.55 4.255-1.19 6.74-5.604 5.55-9.859-.973-3.479-2.86-11.926-1.932-22.351 98.843 3.491 178.048 76.023 178.048 164.698 0 90.895-83.217 164.843-185.505 164.843-4.418 0-8 3.582-8 8s3.582 8 8 8c108.218 0 201.505-78.202 201.505-180.843.003-100.058-88.2-175.619-190.411-180.564z"></path>
		<path d="m179.483 357.971c7.062 0 10.712-8.602 5.657-13.657l-18.101-18.101c-3.124-3.125-8.189-3.124-11.313 0-3.125 3.124-3.125 8.189 0 11.313l18.101 18.101c1.561 1.564 3.608 2.344 5.656 2.344z"></path>
		<path d="m213.705 303.119c4.358.689 8.46-2.281 9.152-6.651.69-4.364-2.287-8.461-6.651-9.152l-18.953-3c-4.358-.691-8.461 2.287-9.152 6.651-.69 4.364 2.287 8.461 6.651 9.152z"></path>
		<path d="m124.718 393.446c4.953 0 8.676-4.421 7.912-9.251l-3-18.953c-.691-4.364-4.79-7.343-9.152-6.651-4.364.691-7.342 4.789-6.651 9.152l3 18.953c.623 3.94 4.024 6.75 7.891 6.75z"></path>
		<path d="m334.063 164.98c2.307 3.5 7.229 4.762 11.1 2.21 3.63-2.448 4.681-7.302 2.21-11.09-2.702-4.11-8.691-4.843-12.31-1.22-2.591 2.59-3.203 6.719-1 10.1z"></path>
		<path d="m373.863 186.1c2.557 3.752 7.446 4.619 11.1 2.21 3.796-2.563 4.582-7.572 2.21-11.09-2.61-3.959-8.461-4.962-12.31-1.22-2.566 2.566-3.201 6.716-1 10.1z"></path>
		<path d="m333.512 211.62c3.743 2.464 8.643 1.434 11.1-2.21 3.945-6.203-1.381-13.619-8.22-12.29-7.109 1.532-8.68 10.585-2.88 14.5z"></path>
	</g>
</svg>